<mxfile host="app.diagrams.net" modified="2024-04-26T01:25:12.338Z" agent="Mozilla/5.0 (Windows NT 10.0; Win64; x64) AppleWebKit/537.36 (KHTML, like Gecko) Chrome/124.0.0.0 Safari/537.36 Edg/124.0.0.0" etag="TRys-z_3RFHkx6nNYfYA" version="24.3.0" type="github">
  <diagram name="第 1 页" id="q-Pm71bWNcR9_Gm3mhyB">
    <mxGraphModel dx="1002" dy="535" grid="1" gridSize="10" guides="1" tooltips="1" connect="1" arrows="1" fold="1" page="1" pageScale="1" pageWidth="827" pageHeight="1169" math="0" shadow="0">
      <root>
        <mxCell id="0" />
        <mxCell id="1" parent="0" />
        <mxCell id="_Vh507r01q-JsE5DWdx2-7" style="edgeStyle=orthogonalEdgeStyle;rounded=0;orthogonalLoop=1;jettySize=auto;html=1;exitX=0.5;exitY=1;exitDx=0;exitDy=0;entryX=0.5;entryY=0;entryDx=0;entryDy=0;" edge="1" parent="1" source="_Vh507r01q-JsE5DWdx2-1" target="_Vh507r01q-JsE5DWdx2-2">
          <mxGeometry relative="1" as="geometry" />
        </mxCell>
        <mxCell id="_Vh507r01q-JsE5DWdx2-8" style="edgeStyle=orthogonalEdgeStyle;rounded=0;orthogonalLoop=1;jettySize=auto;html=1;exitX=0.5;exitY=1;exitDx=0;exitDy=0;" edge="1" parent="1" source="_Vh507r01q-JsE5DWdx2-1" target="_Vh507r01q-JsE5DWdx2-3">
          <mxGeometry relative="1" as="geometry" />
        </mxCell>
        <mxCell id="_Vh507r01q-JsE5DWdx2-10" style="edgeStyle=orthogonalEdgeStyle;rounded=0;orthogonalLoop=1;jettySize=auto;html=1;exitX=0.5;exitY=1;exitDx=0;exitDy=0;entryX=0.5;entryY=0;entryDx=0;entryDy=0;" edge="1" parent="1" source="_Vh507r01q-JsE5DWdx2-1" target="_Vh507r01q-JsE5DWdx2-4">
          <mxGeometry relative="1" as="geometry" />
        </mxCell>
        <mxCell id="_Vh507r01q-JsE5DWdx2-11" style="edgeStyle=orthogonalEdgeStyle;rounded=0;orthogonalLoop=1;jettySize=auto;html=1;exitX=0.5;exitY=1;exitDx=0;exitDy=0;entryX=0.5;entryY=0;entryDx=0;entryDy=0;" edge="1" parent="1" source="_Vh507r01q-JsE5DWdx2-1" target="_Vh507r01q-JsE5DWdx2-5">
          <mxGeometry relative="1" as="geometry" />
        </mxCell>
        <mxCell id="_Vh507r01q-JsE5DWdx2-12" style="edgeStyle=orthogonalEdgeStyle;rounded=0;orthogonalLoop=1;jettySize=auto;html=1;exitX=0.5;exitY=1;exitDx=0;exitDy=0;entryX=0.5;entryY=0;entryDx=0;entryDy=0;" edge="1" parent="1" source="_Vh507r01q-JsE5DWdx2-1" target="_Vh507r01q-JsE5DWdx2-6">
          <mxGeometry relative="1" as="geometry" />
        </mxCell>
        <mxCell id="_Vh507r01q-JsE5DWdx2-1" value="班级管理模块" style="rounded=0;whiteSpace=wrap;html=1;" vertex="1" parent="1">
          <mxGeometry x="285" y="100" width="120" height="60" as="geometry" />
        </mxCell>
        <mxCell id="_Vh507r01q-JsE5DWdx2-2" value="创建班级" style="rounded=0;whiteSpace=wrap;html=1;textDirection=vertical-lr;" vertex="1" parent="1">
          <mxGeometry x="160" y="200" width="50" height="200" as="geometry" />
        </mxCell>
        <mxCell id="_Vh507r01q-JsE5DWdx2-3" value="处理新成员申请" style="rounded=0;whiteSpace=wrap;html=1;textDirection=vertical-lr;" vertex="1" parent="1">
          <mxGeometry x="240" y="200" width="50" height="200" as="geometry" />
        </mxCell>
        <mxCell id="_Vh507r01q-JsE5DWdx2-4" value="移除成员" style="rounded=0;whiteSpace=wrap;html=1;textDirection=vertical-lr;" vertex="1" parent="1">
          <mxGeometry x="320" y="200" width="50" height="200" as="geometry" />
        </mxCell>
        <mxCell id="_Vh507r01q-JsE5DWdx2-5" value="班级考试管理" style="rounded=0;whiteSpace=wrap;html=1;textDirection=vertical-lr;" vertex="1" parent="1">
          <mxGeometry x="400" y="200" width="50" height="200" as="geometry" />
        </mxCell>
        <mxCell id="_Vh507r01q-JsE5DWdx2-6" value="解散班级" style="rounded=0;whiteSpace=wrap;html=1;textDirection=vertical-lr;" vertex="1" parent="1">
          <mxGeometry x="480" y="200" width="50" height="200" as="geometry" />
        </mxCell>
      </root>
    </mxGraphModel>
  </diagram>
</mxfile>
